<?xml version="1.0" encoding="UTF-8"?>
<svg width="455px" height="201px" viewBox="0 0 455 201" version="1.1" xmlns="http://www.w3.org/2000/svg" xmlns:xlink="http://www.w3.org/1999/xlink">
    <!-- Generator: Sketch 63.1 (92452) - https://sketch.com -->
    <title>Scavenger hunt route</title>
    <desc>Created with Sketch.</desc>
    <g id="2.-Research" stroke="none" stroke-width="1" fill="none" fill-rule="evenodd">
        <g id="2.1-Opportunities" transform="translate(-130.000000, -322.000000)">
            <g id="Group" transform="translate(75.000000, 19.000000)">
                <g id="Scavenger-hunt-route" transform="translate(58.198493, 303.500125)">
                    <path d="M448.798464,193.47454 L451.450511,190.822492 C451.816035,190.456969 451.816035,189.862793 451.450511,189.497155 L436.953285,174.999928 L448.971956,162.981257 L451.450511,160.502702 C451.816035,160.137064 451.816035,159.542888 451.450511,159.177365 L448.798464,156.525317 C448.43294,156.159794 447.838764,156.159794 447.473127,156.525317 L432.9759,171.022544 L418.478674,156.524173 C418.113036,156.158535 417.51886,156.158535 417.153337,156.524173 L414.500145,159.176106 C414.134507,159.541744 414.134507,160.13592 414.500145,160.501558 L428.998516,174.999928 L414.500145,189.497155 C414.134507,189.862793 414.134507,190.456969 414.500145,190.822492 L417.152078,193.47454 C417.517716,193.840063 418.111891,193.840063 418.477529,193.47454 L432.9759,178.977313 L444.994571,190.995984 L447.473127,193.47454 C447.838764,193.840063 448.43294,193.840063 448.798464,193.47454 Z" id="end-point" fill="#C1D0F0" fill-rule="nonzero"></path>
                    <path d="M33.4986383,57.3542181 C48.4221562,33.4258236 51.2258376,30.8322553 51.2258376,22.4999464 C51.2258376,10.0667713 41.1461344,-1.13686838e-13 28.7258912,-1.13686838e-13 C16.2927162,-1.13686838e-13 6.22594485,10.0797031 6.22594485,22.4999464 C6.22594485,30.8339719 9.03740817,33.4382977 23.9530297,57.3542181 C26.1542955,60.8837965 31.2998902,60.8795622 33.4986383,57.3542181 Z M28.7258912,54.3748704 C13.7934469,30.4318275 11.8509314,28.9204099 11.8509314,22.4999464 C11.8509314,13.1801291 19.4060739,5.62498659 28.7258912,5.62498659 C38.0457085,5.62498659 45.600851,13.1801291 45.600851,22.4999464 C45.600851,28.8928297 43.8235877,30.1668974 28.7258912,54.3748704 Z M28.7258912,31.874924 C33.9035293,31.874924 38.1008688,27.6775845 38.1008688,22.4999464 C38.1008688,17.3223082 33.9035293,13.1249687 28.7258912,13.1249687 C23.5482531,13.1249687 19.3509136,17.3223082 19.3509136,22.4999464 C19.3509136,27.6775845 23.5482531,31.874924 28.7258912,31.874924 Z" id="map-marker" fill="#C1D0F0" fill-rule="nonzero"></path>
                    <path d="M28.0299738,69.4998748 C18.6109283,97.3070543 10.77315,118.640388 4.51663893,133.499875 C-7.69366279,162.499875 5.58542688,197.499875 35.5114895,197.499875 C103.913918,197.499875 141.321497,76.4998748 202.24241,76.4998748 C246.062716,76.4998748 190.032108,175.499875 416,175.499875" id="Path" stroke="#C1D0F0" stroke-width="5" stroke-dasharray="13"></path>
                </g>
            </g>
        </g>
    </g>
</svg>