<?xml version="1.0" standalone="no"?>
<!DOCTYPE svg PUBLIC "-//W3C//DTD SVG 20010904//EN"
 "http://www.w3.org/TR/2001/REC-SVG-20010904/DTD/svg10.dtd">
<svg version="1.0" xmlns="http://www.w3.org/2000/svg"
 width="618.000000pt" height="618.000000pt" viewBox="0 0 618.000000 618.000000"
 preserveAspectRatio="xMidYMid meet">
<metadata>
Created by potrace 1.11, written by Peter Selinger 2001-2013
</metadata>
<g transform="translate(0.000000,618.000000) scale(0.100000,-0.100000)"
fill="#000000" stroke="none">
<path d="M5035 5613 c-55 -65 -107 -127 -117 -138 -9 -11 -58 -69 -108 -130
-51 -60 -104 -123 -119 -140 -14 -16 -73 -86 -131 -155 -58 -69 -115 -136
-126 -150 -27 -31 -203 -239 -253 -299 -20 -24 -41 -49 -46 -55 -11 -12 -158
-186 -190 -224 -11 -14 -25 -30 -30 -36 -6 -6 -69 -81 -140 -166 -71 -85 -132
-157 -135 -160 -3 -3 -64 -75 -135 -160 -71 -85 -132 -157 -135 -160 -3 -3
-25 -30 -50 -60 -25 -30 -52 -64 -61 -75 -10 -11 -36 -42 -59 -70 -62 -74 -59
-70 -279 -335 -112 -135 -222 -267 -245 -294 -53 -63 -65 -80 -66 -87 0 -4
215 -6 478 -5 l477 1 288 345 c342 410 309 371 427 514 l95 115 3 -1620 2
-1619 377 2 378 3 0 2637 c0 1451 0 2638 -1 2638 0 0 -45 -53 -99 -117z"/>
<path d="M1040 3085 l0 -2635 377 2 378 3 0 2191 0 2191 -143 169 c-181 214
-155 183 -307 364 -72 85 -132 157 -135 160 -3 3 -41 47 -84 98 -43 50 -80 92
-82 92 -2 0 -4 -1186 -4 -2635z"/>
</g>
</svg>
