<?xml version="1.0" encoding="UTF-8"?>
<svg width="284px" height="71px" viewBox="0 0 284 71" version="1.1" xmlns="http://www.w3.org/2000/svg" xmlns:xlink="http://www.w3.org/1999/xlink">
    <!-- Generator: Sketch 63.1 (92452) - https://sketch.com -->
    <title>Logo mobile</title>
    <desc>Created with Sketch.</desc>
    <g id="Logo-mobile" stroke="none" stroke-width="1" fill="none" fill-rule="evenodd">
        <g id="Logo/0.1-regular" fill="#000000">
            <path d="M177.000196,3.3631764e-09 L116.027196,71 L116.028172,32.1457833 L122.658353,32.1457833 L122.65816,53.1252924 L162.618,6.594 L67.9593577,6.59435484 L67.9593577,0.000437960149 L177.000196,3.3631764e-09 Z M104.425355,64.2911275 L104.425355,70.8850444 L67.9593577,70.8850444 L67.9593577,64.2911275 L104.425355,64.2911275 Z M104.425355,32.1453448 L104.425355,38.7392617 L67.9593577,38.7392617 L67.9593577,32.1453448 L104.425355,32.1453448 Z M56.3565405,0.000437960149 L56.3565405,70.8850444 L49.7263593,70.8850444 L49.726,17.897438 L32.5345562,37.9152415 L23.8155562,37.9152415 L49.726,7.74343796 L49.726,7.716 L56.3549542,0 L56.3565405,0.000437960149 Z M0,0.001 L6.63,7.72 L6.63018124,70.8850444 L0,70.8850444 L0,0.001 Z" id="Logo"></path>
        </g>
        <path d="M146.281608,70.6888889 L146.281608,64.9333333 C146.281608,63.3388889 147.763468,62.4444444 148.924926,62.4444444 C150.246584,62.4444444 151.08764,63.3583333 151.08764,64.8555556 L151.08764,70.6888889 L152.369248,70.6888889 L152.369248,64.9333333 C152.369248,63.3388889 153.851108,62.4444444 155.012566,62.4444444 C156.494425,62.4444444 157.17528,63.3583333 157.17528,65.0111111 L157.17528,70.6888889 L158.456888,70.6888889 L158.456888,65.1666667 C158.456888,62.25 157.17528,61.2 155.052616,61.2 C153.690907,61.2 152.709676,61.7638889 151.888645,62.8333333 C151.307916,61.6666667 150.206534,61.2 148.964976,61.2 C147.503141,61.2 146.762212,61.9777778 146.281608,62.6 L146.281608,61.3555556 L145,61.3555556 L145,70.6888889 L146.281608,70.6888889 Z M165.581941,70.8444444 C167.143902,70.8444444 168.445535,70.125 169.266566,69.0361111 L169.266566,70.6888889 L170.548174,70.6888889 L170.548174,61.3555556 L169.266566,61.3555556 L169.266566,63.0083333 C168.445535,61.9194444 167.143902,61.2 165.581941,61.2 C162.838498,61.2 160.615709,63.3583333 160.615709,66.0222222 C160.615709,68.6861111 162.838498,70.8444444 165.581941,70.8444444 Z M165.581941,69.6 C163.539378,69.6 161.897317,68.0055556 161.897317,66.0222222 C161.897317,64.0388889 163.539378,62.4444444 165.581941,62.4444444 C167.624505,62.4444444 169.266566,64.0388889 169.266566,66.0222222 C169.266566,68.0055556 167.624505,69.6 165.581941,69.6 Z M174.789608,70.6888889 L174.789608,66.2166667 C174.789608,64.35 175.710764,63.125 176.952322,62.6972222 C177.753328,62.425 178.534308,62.5222222 178.954835,62.6194444 L178.954835,61.2 C177.152574,61.2 175.450437,62.0166667 174.789608,63.3583333 L174.789608,61.3555556 L173.508,61.3555556 L173.508,70.6888889 L174.789608,70.6888889 Z M181.914661,59.8 C182.53544,59.8 183.036068,59.3138889 183.036068,58.7111111 C183.036068,58.1083333 182.53544,57.6222222 181.914661,57.6222222 C181.293882,57.6222222 180.793254,58.1083333 180.793254,58.7111111 C180.793254,59.3138889 181.293882,59.8 181.914661,59.8 Z M182.555465,70.6888889 L182.555465,61.3555556 L181.273857,61.3555556 L181.273857,70.6888889 L182.555465,70.6888889 Z M189.760619,70.8444444 C191.843233,70.8444444 193.104816,69.9305556 193.365143,69.7166667 L192.884539,68.5888889 C192.083534,69.1916667 191.042227,69.6 189.800669,69.6 C187.758106,69.6 186.236196,68.4138889 186.035944,66.6444444 L193.945871,66.6444444 C193.985922,66.4305556 194.005947,66.1777778 194.005947,65.9833333 C194.005947,62.9888889 192.043484,61.2 189.500292,61.2 C186.556598,61.2 184.714286,63.3194444 184.714286,66.0222222 C184.714286,68.6472222 186.596648,70.8444444 189.760619,70.8444444 Z M192.704313,65.4 L186.035944,65.4 C186.09602,64.0777778 187.157352,62.4444444 189.440217,62.4444444 C191.703057,62.4444444 192.644238,64.1166667 192.704313,65.4 Z M201.291201,66.1777778 L201.291201,64.9333333 L196.164767,64.9333333 L196.164767,66.1777778 L201.291201,66.1777778 Z M208.496354,70.8444444 C210.578968,70.8444444 211.840551,69.9305556 212.100878,69.7166667 L211.620275,68.5888889 C210.81927,69.1916667 209.777963,69.6 208.536405,69.6 C206.493841,69.6 204.971931,68.4138889 204.77168,66.6444444 L212.681607,66.6444444 C212.721657,66.4305556 212.741682,66.1777778 212.741682,65.9833333 C212.741682,62.9888889 210.779219,61.2 208.236028,61.2 C205.292333,61.2 203.450021,63.3194444 203.450021,66.0222222 C203.450021,68.6472222 205.332384,70.8444444 208.496354,70.8444444 Z M211.440049,65.4 L204.77168,65.4 C204.831755,64.0777778 205.893087,62.4444444 208.175952,62.4444444 C210.438792,62.4444444 211.379973,64.1166667 211.440049,65.4 Z M218.264725,71 L222.910555,61.3555556 L221.468746,61.3555556 L218.264725,68.2 L215.060704,61.3555556 L213.618894,61.3555556 L218.264725,71 Z M228.8341,70.8444444 C230.916714,70.8444444 232.178297,69.9305556 232.438624,69.7166667 L231.958021,68.5888889 C231.157016,69.1916667 230.115709,69.6 228.874151,69.6 C226.831587,69.6 225.309677,68.4138889 225.109426,66.6444444 L233.019353,66.6444444 C233.059403,66.4305556 233.079428,66.1777778 233.079428,65.9833333 C233.079428,62.9888889 231.116965,61.2 228.573774,61.2 C225.630079,61.2 223.787767,63.3194444 223.787767,66.0222222 C223.787767,68.6472222 225.67013,70.8444444 228.8341,70.8444444 Z M231.777795,65.4 L225.109426,65.4 C225.169501,64.0777778 226.230833,62.4444444 228.513698,62.4444444 C230.776538,62.4444444 231.717719,64.1166667 231.777795,65.4 Z M245.567323,71 L250.213153,61.3555556 L248.771344,61.3555556 L245.567323,68.2 L242.363302,61.3555556 L240.921492,61.3555556 L245.567323,71 Z M256.136698,70.8444444 C258.219312,70.8444444 259.480895,69.9305556 259.741222,69.7166667 L259.260619,68.5888889 C258.459614,69.1916667 257.418307,69.6 256.176749,69.6 C254.134185,69.6 252.612275,68.4138889 252.412024,66.6444444 L260.321951,66.6444444 C260.362001,66.4305556 260.382026,66.1777778 260.382026,65.9833333 C260.382026,62.9888889 258.419563,61.2 255.876372,61.2 C252.932677,61.2 251.090365,63.3194444 251.090365,66.0222222 C251.090365,68.6472222 252.972728,70.8444444 256.136698,70.8444444 Z M259.080393,65.4 L252.412024,65.4 C252.472099,64.0777778 253.533431,62.4444444 255.816296,62.4444444 C258.079136,62.4444444 259.020317,64.1166667 259.080393,65.4 Z M266.045245,70.8444444 C268.348135,70.8444444 269.589693,69.5027778 269.589693,68.0833333 C269.589693,66.7805556 268.948889,65.7694444 266.365647,65.2444444 C265.32434,65.0305556 263.822455,64.7 263.822455,63.8055556 C263.822455,62.5416667 265.224214,62.425 266.125345,62.4444444 C267.186677,62.4638889 268.388185,62.9111111 268.788688,63.2222222 L269.269291,62.0944444 C268.147883,61.4138889 266.906325,61.2 266.10532,61.2 C263.942606,61.2 262.540847,62.2305556 262.540847,63.7861111 C262.540847,65.1277778 263.201676,65.9444444 266.10532,66.4888889 C267.166652,66.7027778 268.308084,67.1305556 268.308084,68.1416667 C268.308084,69.1722222 267.126602,69.6194444 266.005194,69.6 C264.843737,69.5805556 263.482028,69.1333333 262.781148,68.3944444 L262.220445,69.5222222 C262.620947,69.9305556 264.102807,70.8444444 266.045245,70.8444444 Z M276.314243,70.8444444 C278.396857,70.8444444 279.65844,69.9305556 279.918767,69.7166667 L279.438164,68.5888889 C278.637159,69.1916667 277.595852,69.6 276.354294,69.6 C274.31173,69.6 272.78982,68.4138889 272.589569,66.6444444 L280.499496,66.6444444 C280.539546,66.4305556 280.559571,66.1777778 280.559571,65.9833333 C280.559571,62.9888889 278.597108,61.2 276.053917,61.2 C273.110222,61.2 271.26791,63.3194444 271.26791,66.0222222 C271.26791,68.6472222 273.150273,70.8444444 276.314243,70.8444444 Z M279.257938,65.4 L272.589569,65.4 C272.649644,64.0777778 273.710976,62.4444444 275.993841,62.4444444 C278.256681,62.4444444 279.197862,64.1166667 279.257938,65.4 Z M284,70.6888889 L284,57 L282.718392,57 L282.718392,70.6888889 L284,70.6888889 Z" id="marie-evevesel" fill="#000000" fill-rule="nonzero"></path>
    </g>
</svg>