<?xml version="1.0" encoding="UTF-8"?>
<svg width="236px" height="45px" viewBox="0 0 236 45" version="1.1" xmlns="http://www.w3.org/2000/svg" xmlns:xlink="http://www.w3.org/1999/xlink">
    <!-- Generator: Sketch 63.1 (92452) - https://sketch.com -->
    <title>Logo desktop</title>
    <desc>Created with Sketch.</desc>
    <g id="Logo-desktop" stroke="none" stroke-width="1" fill="none" fill-rule="evenodd">
        <g id="Logo/0.2-bold" fill="#000000">
            <path d="M111.000367,-6.03961325e-14 L73.0863673,44.999 L73.0871924,19.8630014 L78.307724,19.8630014 L78.3067679,30.6970598 L99.766,5.227 L42.8081092,5.22749523 L42.8081092,0.000528730345 L111.000367,-6.03961325e-14 Z M65.7784482,39.7251964 L65.7784482,44.9521629 L42.8081092,44.9521629 L42.8081092,39.7251964 L65.7784482,39.7251964 Z M35.499365,0.000528730345 L35.499365,44.9524406 L30.2788334,44.9524406 L30.278,14.3235287 L21.2551967,25.09042 L14.4411967,25.09042 L25.288,12.1475287 L35.4983657,0.000250995264 L35.499365,0.000528730345 Z M0,0.00152873034 L5.22,6.21152873 L5.22028178,44.9524406 L0,44.9524406 L0,0.00152873034 Z M65.7784482,19.8627237 L65.7784482,25.0896902 L42.8081092,25.0896902 L42.8081092,19.8627237 L65.7784482,19.8627237 Z" id="Logo"></path>
        </g>
        <path d="M98.2816084,44.6888889 L98.2816084,38.9333333 C98.2816084,37.3388889 99.7634681,36.4444444 100.924926,36.4444444 C102.246584,36.4444444 103.08764,37.3583333 103.08764,38.8555556 L103.08764,44.6888889 L104.369248,44.6888889 L104.369248,38.9333333 C104.369248,37.3388889 105.851108,36.4444444 107.012566,36.4444444 C108.494425,36.4444444 109.17528,37.3583333 109.17528,39.0111111 L109.17528,44.6888889 L110.456888,44.6888889 L110.456888,39.1666667 C110.456888,36.25 109.17528,35.2 107.052616,35.2 C105.690907,35.2 104.709676,35.7638889 103.888645,36.8333333 C103.307916,35.6666667 102.206534,35.2 100.964976,35.2 C99.5031414,35.2 98.7622116,35.9777778 98.2816084,36.6 L98.2816084,35.3555556 L97,35.3555556 L97,44.6888889 L98.2816084,44.6888889 Z M117.581941,44.8444444 C119.143902,44.8444444 120.445535,44.125 121.266566,43.0361111 L121.266566,44.6888889 L122.548174,44.6888889 L122.548174,35.3555556 L121.266566,35.3555556 L121.266566,37.0083333 C120.445535,35.9194444 119.143902,35.2 117.581941,35.2 C114.838498,35.2 112.615709,37.3583333 112.615709,40.0222222 C112.615709,42.6861111 114.838498,44.8444444 117.581941,44.8444444 Z M117.581941,43.6 C115.539378,43.6 113.897317,42.0055556 113.897317,40.0222222 C113.897317,38.0388889 115.539378,36.4444444 117.581941,36.4444444 C119.624505,36.4444444 121.266566,38.0388889 121.266566,40.0222222 C121.266566,42.0055556 119.624505,43.6 117.581941,43.6 Z M126.789608,44.6888889 L126.789608,40.2166667 C126.789608,38.35 127.710764,37.125 128.952322,36.6972222 C129.753328,36.425 130.534308,36.5222222 130.954835,36.6194444 L130.954835,35.2 C129.152574,35.2 127.450437,36.0166667 126.789608,37.3583333 L126.789608,35.3555556 L125.508,35.3555556 L125.508,44.6888889 L126.789608,44.6888889 Z M133.914661,33.8 C134.53544,33.8 135.036068,33.3138889 135.036068,32.7111111 C135.036068,32.1083333 134.53544,31.6222222 133.914661,31.6222222 C133.293882,31.6222222 132.793254,32.1083333 132.793254,32.7111111 C132.793254,33.3138889 133.293882,33.8 133.914661,33.8 Z M134.555465,44.6888889 L134.555465,35.3555556 L133.273857,35.3555556 L133.273857,44.6888889 L134.555465,44.6888889 Z M141.760619,44.8444444 C143.843233,44.8444444 145.104816,43.9305556 145.365143,43.7166667 L144.884539,42.5888889 C144.083534,43.1916667 143.042227,43.6 141.800669,43.6 C139.758106,43.6 138.236196,42.4138889 138.035944,40.6444444 L145.945871,40.6444444 C145.985922,40.4305556 146.005947,40.1777778 146.005947,39.9833333 C146.005947,36.9888889 144.043484,35.2 141.500292,35.2 C138.556598,35.2 136.714286,37.3194444 136.714286,40.0222222 C136.714286,42.6472222 138.596648,44.8444444 141.760619,44.8444444 Z M144.704313,39.4 L138.035944,39.4 C138.09602,38.0777778 139.157352,36.4444444 141.440217,36.4444444 C143.703057,36.4444444 144.644238,38.1166667 144.704313,39.4 Z M153.291201,40.1777778 L153.291201,38.9333333 L148.164767,38.9333333 L148.164767,40.1777778 L153.291201,40.1777778 Z M160.496354,44.8444444 C162.578968,44.8444444 163.840551,43.9305556 164.100878,43.7166667 L163.620275,42.5888889 C162.81927,43.1916667 161.777963,43.6 160.536405,43.6 C158.493841,43.6 156.971931,42.4138889 156.77168,40.6444444 L164.681607,40.6444444 C164.721657,40.4305556 164.741682,40.1777778 164.741682,39.9833333 C164.741682,36.9888889 162.779219,35.2 160.236028,35.2 C157.292333,35.2 155.450021,37.3194444 155.450021,40.0222222 C155.450021,42.6472222 157.332384,44.8444444 160.496354,44.8444444 Z M163.440049,39.4 L156.77168,39.4 C156.831755,38.0777778 157.893087,36.4444444 160.175952,36.4444444 C162.438792,36.4444444 163.379973,38.1166667 163.440049,39.4 Z M170.264725,45 L174.910555,35.3555556 L173.468746,35.3555556 L170.264725,42.2 L167.060704,35.3555556 L165.618894,35.3555556 L170.264725,45 Z M180.8341,44.8444444 C182.916714,44.8444444 184.178297,43.9305556 184.438624,43.7166667 L183.958021,42.5888889 C183.157016,43.1916667 182.115709,43.6 180.874151,43.6 C178.831587,43.6 177.309677,42.4138889 177.109426,40.6444444 L185.019353,40.6444444 C185.059403,40.4305556 185.079428,40.1777778 185.079428,39.9833333 C185.079428,36.9888889 183.116965,35.2 180.573774,35.2 C177.630079,35.2 175.787767,37.3194444 175.787767,40.0222222 C175.787767,42.6472222 177.67013,44.8444444 180.8341,44.8444444 Z M183.777795,39.4 L177.109426,39.4 C177.169501,38.0777778 178.230833,36.4444444 180.513698,36.4444444 C182.776538,36.4444444 183.717719,38.1166667 183.777795,39.4 Z M197.567323,45 L202.213153,35.3555556 L200.771344,35.3555556 L197.567323,42.2 L194.363302,35.3555556 L192.921492,35.3555556 L197.567323,45 Z M208.136698,44.8444444 C210.219312,44.8444444 211.480895,43.9305556 211.741222,43.7166667 L211.260619,42.5888889 C210.459614,43.1916667 209.418307,43.6 208.176749,43.6 C206.134185,43.6 204.612275,42.4138889 204.412024,40.6444444 L212.321951,40.6444444 C212.362001,40.4305556 212.382026,40.1777778 212.382026,39.9833333 C212.382026,36.9888889 210.419563,35.2 207.876372,35.2 C204.932677,35.2 203.090365,37.3194444 203.090365,40.0222222 C203.090365,42.6472222 204.972728,44.8444444 208.136698,44.8444444 Z M211.080393,39.4 L204.412024,39.4 C204.472099,38.0777778 205.533431,36.4444444 207.816296,36.4444444 C210.079136,36.4444444 211.020317,38.1166667 211.080393,39.4 Z M218.045245,44.8444444 C220.348135,44.8444444 221.589693,43.5027778 221.589693,42.0833333 C221.589693,40.7805556 220.948889,39.7694444 218.365647,39.2444444 C217.32434,39.0305556 215.822455,38.7 215.822455,37.8055556 C215.822455,36.5416667 217.224214,36.425 218.125345,36.4444444 C219.186677,36.4638889 220.388185,36.9111111 220.788688,37.2222222 L221.269291,36.0944444 C220.147883,35.4138889 218.906325,35.2 218.10532,35.2 C215.942606,35.2 214.540847,36.2305556 214.540847,37.7861111 C214.540847,39.1277778 215.201676,39.9444444 218.10532,40.4888889 C219.166652,40.7027778 220.308084,41.1305556 220.308084,42.1416667 C220.308084,43.1722222 219.126602,43.6194444 218.005194,43.6 C216.843737,43.5805556 215.482028,43.1333333 214.781148,42.3944444 L214.220445,43.5222222 C214.620947,43.9305556 216.102807,44.8444444 218.045245,44.8444444 Z M228.314243,44.8444444 C230.396857,44.8444444 231.65844,43.9305556 231.918767,43.7166667 L231.438164,42.5888889 C230.637159,43.1916667 229.595852,43.6 228.354294,43.6 C226.31173,43.6 224.78982,42.4138889 224.589569,40.6444444 L232.499496,40.6444444 C232.539546,40.4305556 232.559571,40.1777778 232.559571,39.9833333 C232.559571,36.9888889 230.597108,35.2 228.053917,35.2 C225.110222,35.2 223.26791,37.3194444 223.26791,40.0222222 C223.26791,42.6472222 225.150273,44.8444444 228.314243,44.8444444 Z M231.257938,39.4 L224.589569,39.4 C224.649644,38.0777778 225.710976,36.4444444 227.993841,36.4444444 C230.256681,36.4444444 231.197862,38.1166667 231.257938,39.4 Z M236,44.6888889 L236,31 L234.718392,31 L234.718392,44.6888889 L236,44.6888889 Z" id="marie-evevesel" fill="#000000" fill-rule="nonzero"></path>
    </g>
</svg>