<?xml version="1.0" encoding="UTF-8"?>
<svg width="73px" height="30px" viewBox="0 0 73 30" version="1.1" xmlns="http://www.w3.org/2000/svg" xmlns:xlink="http://www.w3.org/1999/xlink">
    <!-- Generator: Sketch 64 (93537) - https://sketch.com -->
    <title>logo_mobile_red</title>
    <desc>Created with Sketch.</desc>
    <g id="Wireframes" stroke="none" stroke-width="1" fill="none" fill-rule="evenodd">
        <g id="Top-nav-compact---mobile-Copy" transform="translate(-20.000000, -44.000000)" fill="#B20F5C">
            <g id="TOP-MENU" transform="translate(0.000000, 44.000000)">
                <g id="Logo/0.2-bold" transform="translate(20.000000, 0.000000)">
                    <path d="M72.9991515,-3.90798505e-14 L48.0661515,30 L48.0663517,19.8355461 L48.0651515,19.835 L48.0663517,13.242001 L51.4996743,13.242001 L51.4990365,20.4633732 L65.612,3.484 L28.1530808,3.48499682 L28.1530808,0.000352486897 L72.9991515,-3.90798505e-14 Z M43.2597001,26.4834643 L43.2597001,29.9681086 L28.1530808,29.9681086 L28.1530808,26.4834643 L43.2597001,26.4834643 Z M23.3464292,0.000352486897 L23.3464292,29.9682938 L19.9131067,29.9682938 L19.913,9.54835249 L13.9787059,16.7266133 L9.49770594,16.7266133 L16.667,8.05435249 L23.3457721,0.000167330176 L23.3464292,0.000352486897 Z M0,0.000352486897 L3.433,4.14035249 L3.43315828,29.9682938 L0,29.9682938 L0,0.000352486897 Z M43.2597001,13.2418158 L43.2597001,16.7264601 L28.1530808,16.7264601 L28.1530808,13.2418158 L43.2597001,13.2418158 Z" id="Logo"></path>
                </g>
            </g>
        </g>
    </g>
</svg>