<?xml version="1.0" encoding="UTF-8"?>
<svg width="224px" height="37px" viewBox="0 0 224 37" version="1.1" xmlns="http://www.w3.org/2000/svg" xmlns:xlink="http://www.w3.org/1999/xlink">
    <!-- Generator: Sketch 64 (93537) - https://sketch.com -->
    <title>logo_white</title>
    <desc>Created with Sketch.</desc>
    <g id="logo_white" stroke="none" stroke-width="1" fill="none" fill-rule="evenodd">
        <path d="M86.9238754,36.6888889 L86.9238754,31.5555556 C86.9238754,29.9611111 88.0862168,29.0666667 89.2485582,29.0666667 C90.5712226,29.0666667 91.0922722,29.9805556 91.0922722,31.4777778 L91.0922722,36.6888889 L93.0161476,36.6888889 L93.0161476,31.5555556 C93.0161476,29.9611111 94.178489,29.0666667 95.3408304,29.0666667 C96.6634948,29.0666667 97.1845444,29.9805556 97.1845444,31.4777778 L97.1845444,36.6888889 L99.1084198,36.6888889 L99.1084198,31.4777778 C99.1084198,28.7166667 97.8258362,27.2 95.7015571,27.2 C94.338812,27.2 93.3969146,27.6083333 92.3748558,28.6777778 C91.7936851,27.7055556 90.8517878,27.2 89.6092849,27.2 C88.1062572,27.2 87.4850058,27.8222222 86.9238754,28.4444444 L86.9238754,27.3555556 L85,27.3555556 L85,36.6888889 L86.9238754,36.6888889 Z M105.841984,36.8444444 C107.144608,36.8444444 108.266869,36.3194444 109.048443,35.3277778 L109.048443,36.6888889 L110.972318,36.6888889 L110.972318,27.3555556 L109.048443,27.3555556 L109.048443,28.7166667 C108.266869,27.725 107.144608,27.2 105.841984,27.2 C103.036332,27.2 101.032295,29.3583333 101.032295,32.0222222 C101.032295,34.6861111 103.036332,36.8444444 105.841984,36.8444444 Z M106.002307,34.9777778 C104.318916,34.9777778 102.956171,33.6555556 102.956171,32.0222222 C102.956171,30.3888889 104.318916,29.0666667 106.002307,29.0666667 C107.685698,29.0666667 109.048443,30.3888889 109.048443,32.0222222 C109.048443,33.6555556 107.685698,34.9777778 106.002307,34.9777778 Z M115.621684,36.6888889 L115.621684,32.5277778 C115.621684,30.8166667 116.443339,29.7861111 117.705882,29.3194444 C118.307093,29.1055556 119.008506,29.1055556 119.469435,29.2416667 L119.469435,27.2 C117.665802,27.2 116.283016,28.0166667 115.621684,29.3583333 L115.621684,27.3555556 L113.697809,27.3555556 L113.697809,36.6888889 L115.621684,36.6888889 Z M122.515571,25.8 C123.317186,25.8 123.958478,25.1777778 123.958478,24.4 C123.958478,23.6222222 123.317186,23 122.515571,23 C121.713956,23 121.072664,23.6222222 121.072664,24.4 C121.072664,25.1777778 121.713956,25.8 122.515571,25.8 Z M123.477509,36.6888889 L123.477509,27.3555556 L121.553633,27.3555556 L121.553633,36.6888889 L123.477509,36.6888889 Z M130.451557,36.8444444 C132.535755,36.8444444 133.798299,35.9305556 134.058824,35.7166667 L133.417532,34.0444444 C132.655998,34.5694444 131.633939,34.9777778 130.491638,34.9777778 C128.96857,34.9777778 127.665946,34.3361111 127.36534,32.8777778 L134.639994,32.8777778 C134.680075,32.625 134.700115,32.2555556 134.700115,32.0611111 C134.700115,29.0277778 132.736159,27.2 130.191032,27.2 C127.245098,27.2 125.401384,29.3583333 125.401384,32.0222222 C125.401384,34.6472222 127.084775,36.8444444 130.451557,36.8444444 Z M132.736159,31.1666667 L127.36534,31.1666667 C127.405421,30.2527778 128.347318,29.0666667 130.110871,29.0666667 C131.934544,29.0666667 132.696078,30.2527778 132.736159,31.1666667 Z M142.074971,32.3333333 L142.074971,30.7777778 L136.623991,30.7777778 L136.623991,32.3333333 L142.074971,32.3333333 Z M149.04902,36.8444444 C151.133218,36.8444444 152.395761,35.9305556 152.656286,35.7166667 L152.014994,34.0444444 C151.25346,34.5694444 150.231401,34.9777778 149.0891,34.9777778 C147.566032,34.9777778 146.263408,34.3361111 145.962803,32.8777778 L153.237457,32.8777778 C153.277537,32.625 153.297578,32.2555556 153.297578,32.0611111 C153.297578,29.0277778 151.333622,27.2 148.788495,27.2 C145.842561,27.2 143.998847,29.3583333 143.998847,32.0222222 C143.998847,34.6472222 145.682238,36.8444444 149.04902,36.8444444 Z M151.333622,31.1666667 L145.962803,31.1666667 C146.002884,30.2527778 146.944781,29.0666667 148.708333,29.0666667 C150.532007,29.0666667 151.293541,30.2527778 151.333622,31.1666667 Z M158.588235,37 L163.237601,27.3555556 L161.153403,27.3555556 L158.588235,32.8 L156.023068,27.3555556 L153.93887,27.3555556 L158.588235,37 Z M168.929066,36.8444444 C171.013264,36.8444444 172.275807,35.9305556 172.536332,35.7166667 L171.89504,34.0444444 C171.133506,34.5694444 170.111448,34.9777778 168.969146,34.9777778 C167.446078,34.9777778 166.143454,34.3361111 165.842849,32.8777778 L173.117503,32.8777778 C173.157584,32.625 173.177624,32.2555556 173.177624,32.0611111 C173.177624,29.0277778 171.213668,27.2 168.668541,27.2 C165.722607,27.2 163.878893,29.3583333 163.878893,32.0222222 C163.878893,34.6472222 165.562284,36.8444444 168.929066,36.8444444 Z M171.213668,31.1666667 L165.842849,31.1666667 C165.88293,30.2527778 166.824827,29.0666667 168.588379,29.0666667 C170.412053,29.0666667 171.173587,30.2527778 171.213668,31.1666667 Z M185.201845,37 L189.851211,27.3555556 L187.767013,27.3555556 L185.201845,32.8 L182.636678,27.3555556 L180.55248,27.3555556 L185.201845,37 Z M195.542676,36.8444444 C197.626874,36.8444444 198.889418,35.9305556 199.149942,35.7166667 L198.508651,34.0444444 C197.747116,34.5694444 196.725058,34.9777778 195.582757,34.9777778 C194.059689,34.9777778 192.757065,34.3361111 192.456459,32.8777778 L199.731113,32.8777778 C199.771194,32.625 199.791234,32.2555556 199.791234,32.0611111 C199.791234,29.0277778 197.827278,27.2 195.282151,27.2 C192.336217,27.2 190.492503,29.3583333 190.492503,32.0222222 C190.492503,34.6472222 192.175894,36.8444444 195.542676,36.8444444 Z M197.827278,31.1666667 L192.456459,31.1666667 C192.49654,30.2527778 193.438437,29.0666667 195.20199,29.0666667 C197.025663,29.0666667 197.787197,30.2527778 197.827278,31.1666667 Z M205.56286,36.8444444 C208.067907,36.8444444 209.410611,35.6194444 209.410611,33.7722222 C209.410611,32.625 208.729239,31.4583333 205.903547,30.9333333 C204.781286,30.7194444 203.638985,30.5833333 203.638985,29.8833333 C203.638985,29.2416667 204.681084,29.0472222 205.622982,29.0666667 C206.805363,29.0861111 208.007785,29.5333333 208.448674,29.8444444 L209.110006,28.0944444 C207.807382,27.4138889 206.484717,27.2 205.622982,27.2 C203.258218,27.2 201.71511,28.3083333 201.71511,29.8638889 C201.71511,31.3611111 202.456603,32.2555556 205.602941,32.8 C206.785323,33.0138889 207.486736,33.2861111 207.486736,33.9861111 C207.486736,34.55 206.745242,34.9972222 205.502739,34.9777778 C204.420559,34.9583333 202.917532,34.4333333 202.155998,33.6944444 L201.394464,35.5222222 C201.835352,35.9305556 203.438581,36.8444444 205.56286,36.8444444 Z M215.903691,36.8444444 C217.987889,36.8444444 219.250433,35.9305556 219.510957,35.7166667 L218.869666,34.0444444 C218.108131,34.5694444 217.086073,34.9777778 215.943772,34.9777778 C214.420704,34.9777778 213.11808,34.3361111 212.817474,32.8777778 L220.092128,32.8777778 C220.132209,32.625 220.152249,32.2555556 220.152249,32.0611111 C220.152249,29.0277778 218.188293,27.2 215.643166,27.2 C212.697232,27.2 210.853518,29.3583333 210.853518,32.0222222 C210.853518,34.6472222 212.536909,36.8444444 215.903691,36.8444444 Z M218.188293,31.1666667 L212.817474,31.1666667 C212.857555,30.2527778 213.799452,29.0666667 215.563005,29.0666667 C217.386678,29.0666667 218.148212,30.2527778 218.188293,31.1666667 Z M224,36.6888889 L224,23 L222.076125,23 L222.076125,36.6888889 L224,36.6888889 Z" id="marie-evevesel" fill="#FFFFFF" fill-rule="nonzero"></path>
        <g id="Logo/0.2-bold" fill="#FFFFFF">
            <path d="M90.9998327,-4.97379915e-14 L59.9178327,37 L59.9183289,24.4638402 L59.9168327,24.463 L59.9183289,16.3318012 L64.1982242,16.3318012 L64.1975935,25.2391603 L81.789,4.298 L35.0949364,4.29816275 L35.0949364,0.000434733839 L90.9998327,-4.97379915e-14 Z M53.9264755,32.6629393 L53.9264755,36.9606673 L35.0949364,36.9606673 L35.0949364,32.6629393 L53.9264755,32.6629393 Z M29.103083,0.000434733839 L29.103083,36.9608956 L24.8231878,36.9608956 L24.823,11.7764347 L17.4253595,20.6301231 L11.8383595,20.6301231 L20.382,10.4044347 L29.1022638,0.000206373884 L29.103083,0.000434733839 Z M0,0.00143473384 L4.279,5.10743473 L4.27969046,36.9608956 L0,36.9608956 L0,0.00143473384 Z M53.9264755,16.3315728 L53.9264755,20.6293008 L35.0949364,20.6293008 L35.0949364,16.3315728 L53.9264755,16.3315728 Z" id="Logo"></path>
        </g>
    </g>
</svg>