<?xml version="1.0" standalone="no"?>
<!DOCTYPE svg PUBLIC "-//W3C//DTD SVG 20010904//EN"
 "http://www.w3.org/TR/2001/REC-SVG-20010904/DTD/svg10.dtd">
<svg version="1.0" xmlns="http://www.w3.org/2000/svg"
 width="618.000000pt" height="618.000000pt" viewBox="0 0 618.000000 618.000000"
 preserveAspectRatio="xMidYMid meet">
<metadata>
Created by potrace 1.11, written by Peter Selinger 2001-2013
</metadata>
<g transform="translate(0.000000,618.000000) scale(0.100000,-0.100000)"
fill="#000000" stroke="none">
<path d="M1170 2785 l0 -2785 408 0 407 0 0 2308 0 2307 -25 29 c-14 16 -29
34 -35 40 -5 6 -43 52 -84 101 -41 50 -80 95 -86 100 -5 6 -78 91 -160 190
-82 99 -152 182 -155 185 -3 3 -28 32 -56 65 -71 86 -85 103 -121 144 -18 20
-43 51 -55 68 -13 18 -26 33 -30 33 -5 0 -8 -1253 -8 -2785z"/>
<path d="M6043 5418 c-70 -83 -175 -208 -233 -277 -58 -69 -117 -140 -131
-156 -15 -17 -115 -136 -224 -265 -108 -129 -214 -255 -235 -280 -21 -25 -66
-79 -101 -120 -34 -41 -67 -80 -73 -86 -6 -6 -27 -31 -45 -54 -19 -23 -40 -48
-46 -54 -6 -6 -44 -51 -85 -101 -41 -49 -84 -101 -96 -115 -12 -14 -63 -74
-114 -135 -51 -60 -101 -121 -113 -135 -34 -40 -346 -411 -387 -460 -21 -25
-102 -121 -181 -215 -80 -93 -168 -199 -198 -235 -74 -89 -134 -161 -146 -174
-6 -6 -44 -51 -85 -101 -41 -49 -80 -96 -87 -103 -7 -7 -13 -15 -13 -18 0 -2
237 -4 528 -4 l527 1 127 152 c71 84 138 164 150 179 13 14 32 37 42 50 11 12
31 37 45 54 14 17 46 55 71 84 25 30 72 86 105 125 33 38 94 110 135 160 105
126 121 144 156 183 l31 35 -1 -1676 -1 -1677 408 0 407 0 0 2785 c0 1532 -2
2785 -4 2785 -2 0 -62 -68 -133 -152z"/>
</g>
</svg>
