<?xml version="1.0" standalone="no"?>
<!DOCTYPE svg PUBLIC "-//W3C//DTD SVG 20010904//EN"
 "http://www.w3.org/TR/2001/REC-SVG-20010904/DTD/svg10.dtd">
<svg version="1.0" xmlns="http://www.w3.org/2000/svg"
 width="618.000000pt" height="618.000000pt" viewBox="0 0 618.000000 618.000000"
 preserveAspectRatio="xMidYMid meet">
<metadata>
Created by potrace 1.11, written by Peter Selinger 2001-2013
</metadata>
<g transform="translate(0.000000,618.000000) scale(0.100000,-0.100000)"
fill="#000000" stroke="none">
<path d="M830 3040 l0 -1120 160 0 160 0 0 933 0 932 -23 25 c-12 14 -84 98
-160 188 l-137 163 0 -1121z"/>
<path d="M2890 4000 l0 -160 1260 0 c693 0 1260 -3 1260 -6 0 -3 -102 -128
-227 -277 -125 -150 -235 -281 -244 -292 -9 -11 -34 -41 -55 -66 -22 -25 -59
-69 -84 -99 -25 -30 -61 -72 -80 -95 -19 -23 -53 -64 -75 -90 -22 -27 -56 -66
-75 -87 l-35 -39 0 203 0 203 -160 3 -161 2 1 -640 c0 -625 0 -640 19 -618 20
25 30 37 236 283 79 94 175 208 214 255 39 46 81 96 92 110 50 59 208 247 474
565 156 187 311 372 344 410 32 39 104 124 158 190 55 66 110 131 121 145 12
14 58 68 101 120 44 52 89 105 99 118 l20 22 -1601 0 -1602 0 0 -160z"/>
<path d="M2550 4143 c0 -5 -15 -24 -33 -44 -17 -20 -41 -47 -52 -60 -98 -118
-230 -275 -235 -279 -3 -3 -66 -77 -140 -165 -169 -202 -234 -279 -240 -285
-3 -3 -37 -43 -75 -90 -38 -47 -72 -87 -75 -90 -3 -3 -24 -27 -45 -55 -22 -27
-42 -52 -45 -55 -21 -21 -110 -129 -110 -134 0 -3 91 -6 203 -5 l202 0 165
200 c91 110 168 202 172 205 4 3 7 -298 7 -668 0 -370 1 -679 1 -685 0 -10 39
-13 160 -13 l160 0 0 1115 c0 737 -3 1115 -10 1115 -5 0 -10 -3 -10 -7z"/>
<path d="M2890 3040 l0 -160 502 2 503 3 0 158 0 157 -502 0 -503 0 0 -160z"/>
<path d="M2890 2080 l0 -160 503 0 502 0 0 160 0 160 -502 0 -503 0 0 -160z"/>
</g>
</svg>
