<?xml version="1.0" standalone="no"?>
<!DOCTYPE svg PUBLIC "-//W3C//DTD SVG 20010904//EN"
 "http://www.w3.org/TR/2001/REC-SVG-20010904/DTD/svg10.dtd">
<svg version="1.0" xmlns="http://www.w3.org/2000/svg"
 width="558.000000pt" height="558.000000pt" viewBox="0 0 558.000000 558.000000"
 preserveAspectRatio="xMidYMid meet">
<metadata>
Created by potrace 1.11, written by Peter Selinger 2001-2013
</metadata>
<g transform="translate(0.000000,558.000000) scale(0.100000,-0.100000)"
fill="#000000" stroke="none">
<path d="M0 2790 l0 -2790 2790 0 2790 0 0 1857 0 1858 -24 -25 c-13 -14 -373
-429 -800 -922 -427 -493 -781 -900 -786 -903 -7 -4 -10 170 -10 509 l0 516
105 0 105 0 2 -232 3 -233 464 535 464 535 -1187 3 -1186 2 0 110 0 110 1425
0 1425 0 0 930 0 930 -2790 0 -2790 0 0 -2790z m1097 821 l93 -86 0 -837 0
-838 -105 0 -105 0 0 931 c0 741 3 929 13 923 6 -4 54 -46 104 -93z m1333
-836 l0 -925 -105 0 -105 0 -2 637 -3 638 -173 -203 -173 -202 -141 0 -141 0
20 23 c11 12 199 232 417 490 219 257 400 467 402 467 2 0 4 -416 4 -925z
m1230 10 l0 -105 -465 0 -465 0 0 105 0 105 465 0 465 0 0 -105z m0 -825 l0
-110 -465 0 -465 0 0 110 0 110 465 0 465 0 0 -110z"/>
</g>
</svg>
