<?xml version="1.0" encoding="UTF-8"?>
<svg width="91px" height="37px" viewBox="0 0 91 37" version="1.1" xmlns="http://www.w3.org/2000/svg" xmlns:xlink="http://www.w3.org/1999/xlink">
    <!-- Generator: Sketch 64 (93537) - https://sketch.com -->
    <title>logo_mobile_sc_blue</title>
    <desc>Created with Sketch.</desc>
    <g id="Wireframes" stroke="none" stroke-width="1" fill="none" fill-rule="evenodd">
        <g id="logo_desktop_sc_blue" fill="#E0436A">
            <g id="Logo/0.2-bold">
                <path d="M90.9998327,-4.97379915e-14 L59.9178327,37 L59.9183289,24.4638402 L59.9168327,24.463 L59.9183289,16.3318012 L64.1982242,16.3318012 L64.1975935,25.2391603 L81.789,4.298 L35.0949364,4.29816275 L35.0949364,0.000434733839 L90.9998327,-4.97379915e-14 Z M53.9264755,32.6629393 L53.9264755,36.9606673 L35.0949364,36.9606673 L35.0949364,32.6629393 L53.9264755,32.6629393 Z M29.103083,0.000434733839 L29.103083,36.9608956 L24.8231878,36.9608956 L24.823,11.7764347 L17.4253595,20.6301231 L11.8383595,20.6301231 L20.382,10.4044347 L29.1022638,0.000206373884 L29.103083,0.000434733839 Z M0,0.00143473384 L4.279,5.10743473 L4.27969046,36.9608956 L0,36.9608956 L0,0.00143473384 Z M53.9264755,16.3315728 L53.9264755,20.6293008 L35.0949364,20.6293008 L35.0949364,16.3315728 L53.9264755,16.3315728 Z" id="Logo"></path>
            </g>
        </g>
    </g>
</svg>